<?xml version="1.0" encoding="iso-8859-1"?>
<!-- Generator: Adobe Illustrator 19.0.0, SVG Export Plug-In . SVG Version: 6.00 Build 0)  -->
<svg xmlns="http://www.w3.org/2000/svg" xmlns:xlink="http://www.w3.org/1999/xlink" version="1.1" id="Capa_1" x="0px" y="0px" viewBox="0 0 512 512" style="enable-background:new 0 0 512 512;" xml:space="preserve">
<polygon style="fill:#b2b6f6;" points="256,0 34.297,128 34.297,384 256,512 477.703,384 477.703,128 "/>
<polygon style="fill:#b2b6f6;" points="256,256 256,0 34.297,128 "/>
<path style="fill:#82D2FF;" d="M256,256L256,256L256,256z"/>
<polygon style="fill:#7685f1;" points="34.297,128 34.297,384 256,256 "/>
<polygon style="fill:#939dee;" points="477.703,128 477.703,128 256,256 256,256 477.703,384 477.703,384 "/>
<polygon style="fill:#5768d4;" points="256,256 34.297,384 256,512 "/>
<polygon style="fill:#7081ec;" points="256,512 477.703,384 256,256 "/>
<polygon style="fill:#959ff0;" points="381.121,328.238 381.121,183.762 256,111.523 130.879,183.762 130.879,328.238 256,400.477   "/>
<polygon style="fill:#a5adeb;" points="381.121,328.238 381.121,183.762 256,111.523 256,400.477 "/>
<g>
</g>
<g>
</g>
<g>
</g>
<g>
</g>
<g>
</g>
<g>
</g>
<g>
</g>
<g>
</g>
<g>
</g>
<g>
</g>
<g>
</g>
<g>
</g>
<g>
</g>
<g>
</g>
<g>
</g>
</svg>